<svg height="512pt" viewBox="0 -9 512 512" width="512pt" xmlns="http://www.w3.org/2000/svg"><path d="m420.28125 247.191406 20.128906-89.070312-20.21875-6.972656-42.722656 89.863281v.089843l-2.914062 6.089844zm0 0" fill="#f3d55b"/><path d="m509.351562 114.601562c-.183593.933594-.449218 1.851563-.792968 2.738282-10.597656 30.722656-43.199219 47.972656-74.566406 39.453125-31.363282-8.523438-50.75-39.898438-44.34375-71.765625l18.714843-4.851563c6.886719-1.75 14.152344.785157 18.449219 6.441407l5.03125 6.621093c4.328125 5.675781 11.644531 8.183594 18.539062 6.355469l7.945313-2.03125c6.898437-1.839844 14.222656.671875 18.539063 6.359375l5.03125 6.617187c4.335937 5.660157 11.625 8.195313 18.539062 6.445313zm0 0" fill="#f0c419"/><path d="m509.351562 114.601562-8.914062 2.382813c-6.914062 1.75-14.203125-.785156-18.539062-6.445313l-5.03125-6.617187c-4.316407-5.6875-11.640626-8.199219-18.539063-6.359375l-7.945313 2.03125c-6.894531 1.828125-14.210937-.679688-18.539062-6.355469l-5.03125-6.621093c-4.296875-5.65625-11.5625-8.191407-18.449219-6.441407l-18.714843 4.851563c.488281-2.757813 1.199218-5.472656 2.121093-8.121094 10.976563-31.703125 45.257813-48.847656 77.207031-38.605469 31.953126 10.246094 49.878907 44.121094 40.375 76.300781zm0 0" fill="#e64c3c"/><path d="m70.355469 183.632812c-29.925781-11.035156-58.703125-6.621093-65.941407 10.417969-6.972656 16.507813 8.914063 39.371094 36.191407 53.140625h28.828125zm0 0" fill="#af8066"/><path d="m222.101562 144.703125-7.238281 102.222656-154.746093.265625c-1.894532-21.707031 1.621093-43.542968 10.238281-63.558594 3.238281-7.457031 7.296875-14.53125 12.09375-21.097656 2.210937-3.105468 4.597656-6.085937 7.152343-8.914062l104.074219-25.070313c3.472657 1.328125 6.863281 2.859375 10.152344 4.589844 6.472656 3.21875 12.59375 7.09375 18.273437 11.5625zm0 0" fill="#7f5b53"/><path d="m203.828125 133.140625c-11.476563 20.800781-31.296875 35.703125-54.464844 40.957031-22.933593 5.839844-47.269531 1.632813-66.914062-11.5625 2.210937-3.105468 4.597656-6.085937 7.152343-8.914062l104.074219-25.070313c3.472657 1.328125 6.863281 2.859375 10.152344 4.589844zm0 0" fill="#59474e"/><path d="m63.0625 55.023438c-10.808594-13.824219-30.136719-17.597657-45.351562-8.851563-15.214844 8.746094-21.683594 27.34375-15.175782 43.644531 6.503906 16.296875 24 25.332032 41.054688 21.199219 2.902344-.671875 5.703125-1.742187 8.3125-3.183594zm0 0" fill="#7f5b53"/><path d="m206.378906 70.617188c2.980469.09375 5.960938-.226563 8.851563-.949219 17.113281-4.0625 28.632812-20.097657 27.007812-37.613281-1.621093-17.515626-15.886719-31.164063-33.457031-32.0117192-17.570312-.8476568-33.082031 11.3632812-36.382812 28.6406252zm0 0" fill="#7f5b53"/><path d="m206.648438 71.734375c-9.132813-37.917969-51.121094-60.324219-93.777344-50.050781-42.65625 10.277344-69.835938 49.347656-60.699219 87.265625 9.132813 37.917969 51.121094 60.324219 93.777344 50.046875 42.65625-10.273438 69.832031-49.34375 60.699219-87.261719zm0 0" fill="#af8066"/><path d="m131.464844 107.753906c-4.078125-.007812-7.621094-2.804687-8.578125-6.769531l-2.058594-8.582031c-.738281-3.066406.21875-6.292969 2.507813-8.464844 2.289062-2.171875 5.5625-2.957031 8.585937-2.0625 3.023437.898438 5.34375 3.339844 6.078125 6.40625l2.058594 8.582031c.628906 2.632813.019531 5.40625-1.65625 7.527344-1.675782 2.125-4.230469 3.363281-6.9375 3.363281zm0 0" fill="#35495e"/><path d="m108.355469 79.378906c0 4.875-3.953125 8.828125-8.828125 8.828125s-8.828125-3.953125-8.828125-8.828125 3.953125-8.828125 8.828125-8.828125 8.828125 3.953125 8.828125 8.828125zm0 0" fill="#35495e"/><path d="m159.847656 66.976562c0 4.875-3.949218 8.824219-8.828125 8.824219-4.875 0-8.824219-3.949219-8.824219-8.824219s3.949219-8.828124 8.824219-8.828124c4.878907 0 8.828125 3.953124 8.828125 8.828124zm0 0" fill="#35495e"/><path d="m279.480469 198.992188h-.085938c-4.867187-.023438-8.796875-3.980469-8.785156-8.847657.011719-4.867187 3.960937-8.804687 8.828125-8.804687s8.816406 3.9375 8.828125 8.804687c.011719 4.867188-3.917969 8.824219-8.785156 8.847657zm0 0"/><path d="m375.527344 192.902344c-40.609375-13.59375-72.035156-12.003906-96.132813-2.738282-5.859375 2.226563-11.480469 5.035157-16.773437 8.386719-18.585938 12.042969-33.609375 28.835938-43.519532 48.640625h-30.015624c-2.496094-8.605468-3.742188-17.523437-3.707032-26.480468-.058594-29.625 13.476563-57.640626 36.722656-76.007813 4.878907-3.9375 10.140626-7.367187 15.714844-10.238281 13.792969-7.175782 29.117188-10.898438 44.667969-10.859375h2.46875c42.007813 1.0625 78.5625 29.027343 90.574219 69.296875zm0 0" fill="#f0c419"/><path d="m379.585938 220.710938c.011718 6.820312-.695313 13.628906-2.117188 20.300781v.089843c-.441406 2.03125-.972656 4.058594-1.589844 6.089844h-156.777344c9.910157-19.804687 24.933594-36.597656 43.519532-48.640625 5.292968-3.351562 10.914062-6.160156 16.773437-8.386719 24.097657-9.265624 55.523438-10.855468 96.132813 2.738282 2.703125 9.019531 4.074218 18.390625 4.058594 27.808594zm0 0" fill="#e64c3c"/><path d="m17.65625 247.191406h476.6875c9.75 0 17.65625 7.90625 17.65625 17.65625v141.242188c0 48.753906-39.523438 88.273437-88.277344 88.273437h-335.445312c-48.753906 0-88.277344-39.519531-88.277344-88.273437v-141.242188c0-9.75 7.90625-17.65625 17.65625-17.65625zm0 0" fill="#2980ba"/><path d="m494.34375 264.847656v141.242188c-.015625 48.746094-39.527344 88.257812-88.273438 88.273437h-300.140624c-48.746094-.015625-88.257813-39.527343-88.273438-88.273437v-141.242188c.027344-9.738281 7.914062-17.628906 17.652344-17.65625h441.382812c9.738282.027344 17.625 7.917969 17.652344 17.65625zm0 0" fill="#2fa8cc"/><path d="m494.34375 282.503906h17.65625v35.308594h-17.65625zm0 0" fill="#f29c1f"/><path d="m0 282.503906h17.65625v35.308594h-17.65625zm0 0" fill="#f29c1f"/><g fill="#f0c419"><path d="m17.65625 282.503906h476.6875v35.308594h-476.6875zm0 0"/><path d="m259.996094 361.636719 11.371094 24.222656c.625 1.335937 1.871093 2.269531 3.328124 2.488281l25.777344 3.941406c1.632813.25 2.992188 1.390626 3.519532 2.960938.523437 1.570312.128906 3.300781-1.027344 4.484375l-18.929688 19.398437c-.980468 1.003907-1.421875 2.414063-1.195312 3.796876l4.429687 27.15625c.269531 1.667968-.433593 3.34375-1.816406 4.320312-1.378906.972656-3.195313 1.070312-4.675781.253906l-22.644532-12.519531c-1.328124-.734375-2.941406-.734375-4.269531 0l-22.644531 12.519531c-1.480469.816406-3.296875.71875-4.679688-.253906-1.378906-.976562-2.085937-2.652344-1.8125-4.320312l4.429688-27.15625c.226562-1.382813-.21875-2.792969-1.195312-3.796876l-18.921876-19.398437c-1.15625-1.1875-1.554687-2.917969-1.027343-4.484375.523437-1.570312 1.882812-2.714844 3.519531-2.964844l25.777344-3.9375c1.453125-.222656 2.703125-1.15625 3.328125-2.488281l11.371093-24.226563c.726563-1.546874 2.28125-2.535156 3.992188-2.535156s3.269531.988282 3.996094 2.539063zm0 0"/><path d="m118.753906 361.636719 11.371094 24.222656c.625 1.335937 1.875 2.269531 3.328125 2.488281l25.777344 3.941406c1.636719.25 2.992187 1.390626 3.519531 2.960938.523438 1.570312.128906 3.300781-1.027344 4.484375l-18.929687 19.398437c-.976563 1.003907-1.421875 2.414063-1.195313 3.796876l4.429688 27.15625c.269531 1.667968-.433594 3.34375-1.816406 4.320312-1.378907.972656-3.195313 1.070312-4.675782.253906l-22.644531-12.519531c-1.328125-.734375-2.941406-.734375-4.269531 0l-22.644532 12.519531c-1.480468.816406-3.296874.71875-4.675781-.253906-1.382812-.976562-2.085937-2.652344-1.816406-4.320312l4.429687-27.15625c.226563-1.382813-.21875-2.792969-1.195312-3.796876l-18.921875-19.398437c-1.15625-1.1875-1.554687-2.917969-1.027344-4.484375.523438-1.570312 1.882813-2.714844 3.519531-2.964844l25.777344-3.9375c1.453125-.222656 2.703125-1.15625 3.328125-2.488281l11.371094-24.226563c.726563-1.546874 2.285156-2.535156 3.996094-2.535156 1.707031 0 3.265625.988282 3.992187 2.539063zm0 0"/><path d="m401.238281 361.636719 11.371094 24.222656c.625 1.335937 1.871094 2.269531 3.328125 2.488281l25.777344 3.941406c1.632812.25 2.992187 1.390626 3.519531 2.960938.523437 1.570312.128906 3.300781-1.027344 4.484375l-18.929687 19.398437c-.980469 1.003907-1.425782 2.414063-1.199219 3.796876l4.429687 27.15625c.273438 1.667968-.429687 3.34375-1.8125 4.320312-1.382812.972656-3.199218 1.070312-4.675781.253906l-22.644531-12.519531c-1.328125-.734375-2.941406-.734375-4.273438 0l-22.644531 12.519531c-1.476562.816406-3.292969.71875-4.675781-.253906-1.382812-.976562-2.085938-2.652344-1.8125-4.320312l4.429688-27.15625c.226562-1.382813-.21875-2.792969-1.199219-3.796876l-18.921875-19.398437c-1.15625-1.1875-1.550782-2.917969-1.023438-4.484375.523438-1.570312 1.882813-2.714844 3.519532-2.964844l25.773437-3.9375c1.457031-.222656 2.703125-1.15625 3.332031-2.488281l11.367188-24.226563c.730468-1.546874 2.285156-2.535156 3.996094-2.535156 1.710937 0 3.265624.988282 3.996093 2.539063zm0 0"/></g></svg>